<svg width="34" height="34" viewBox="0 0 34 34" fill="none" xmlns="http://www.w3.org/2000/svg">
<path d="M23.5454 31.1666H10.4546C6.64307 31.1666 3.54166 28.0939 3.54166 24.3164V16.7668C3.54166 12.9893 6.64307 9.91663 10.4546 9.91663H23.5454C27.357 9.91663 30.4583 12.9893 30.4583 16.7668V24.3164C30.4583 28.0939 27.357 31.1666 23.5454 31.1666Z" fill="#9AAFDF"/>
<path d="M22.3198 14.1667C21.7373 14.1667 21.2645 13.7082 21.2645 13.1432V9.00564C21.2645 6.73078 19.3567 4.88033 17.0127 4.88033C15.9335 4.88033 14.8009 5.30064 13.9947 6.07439C13.1871 6.85087 12.7397 7.8839 12.7355 8.98654V13.1432C12.7355 13.7082 12.2627 14.1667 11.6802 14.1667C11.0977 14.1667 10.625 13.7082 10.625 13.1432V9.00564C10.632 7.32849 11.3018 5.78099 12.5089 4.62242C13.7147 3.4611 15.2736 2.87841 17.0169 2.83337C20.5202 2.83337 23.375 5.60223 23.375 9.00564V13.1432C23.375 13.7082 22.9023 14.1667 22.3198 14.1667Z" fill="#1D50C9"/>
</svg>
