<svg width="72" height="72" viewBox="0 0 72 72" fill="none" xmlns="http://www.w3.org/2000/svg">
<path fill-rule="evenodd" clip-rule="evenodd" d="M25.5949 8.81025C32.1494 5.00176 40.2061 5.06833 46.6991 8.98462C53.1284 12.9806 57.0359 20.1124 56.9995 27.7842C56.8499 35.4057 52.6599 42.5699 47.4224 48.1082C44.3995 51.3191 41.0178 54.1584 37.3465 56.568C36.9684 56.7867 36.5542 56.933 36.1245 56.9999C35.7108 56.9823 35.3079 56.8601 34.9523 56.6442C29.3473 53.0236 24.43 48.402 20.437 43.0018C17.0958 38.494 15.1975 33.0479 15 27.4032C14.9957 19.7166 19.0403 12.6187 25.5949 8.81025ZM29.3825 30.5842C30.4851 33.3024 33.0875 35.0754 35.9748 35.0754C37.8663 35.089 39.6846 34.3314 41.0244 32.9713C42.3643 31.6113 43.1144 29.7618 43.1077 27.835C43.1178 24.894 41.3864 22.2368 38.7218 21.1042C36.0572 19.9716 32.9851 20.5869 30.94 22.6629C28.8948 24.7389 28.2799 27.8661 29.3825 30.5842Z" fill="white"/>
<path opacity="0.4" d="M36 65.9999C44.2843 65.9999 51 64.6568 51 62.9999C51 61.3431 44.2843 59.9999 36 59.9999C27.7157 59.9999 21 61.3431 21 62.9999C21 64.6568 27.7157 65.9999 36 65.9999Z" fill="white"/>
</svg>
