<svg width="34" height="34" viewBox="0 0 34 34" fill="none" xmlns="http://www.w3.org/2000/svg">
<path d="M15 28C21.6274 28 27 22.4036 27 15.5C27 8.59644 21.6274 3 15 3C8.37258 3 3 8.59644 3 15.5C3 22.4036 8.37258 28 15 28Z" fill="#093CB5"/>
<path opacity="0.4" d="M29.2892 31.1034C28.8159 31.0881 28.3659 30.8934 28.0294 30.5583L25.1444 27.1862C24.5259 26.6206 24.4753 25.6593 25.031 25.0311C25.2912 24.7679 25.6448 24.6199 26.0137 24.6199C26.3826 24.6199 26.7362 24.7679 26.9963 25.0311L30.6245 27.9341C31.1472 28.4691 31.3084 29.2632 31.0363 29.9615C30.7641 30.6599 30.1094 31.132 29.3647 31.1668L29.2892 31.1034Z" fill="#093CB5"/>
</svg>
