<svg width="72" height="72" viewBox="0 0 72 72" fill="none" xmlns="http://www.w3.org/2000/svg">
<path opacity="0.4" d="M38.9289 9.34078L45.6083 22.7636C46.1004 23.7361 47.0396 24.4114 48.1229 24.5615L63.1261 26.7466C64.0023 26.8697 64.7975 27.3319 65.3346 28.0372C65.8657 28.7336 66.0937 29.6161 65.9647 30.4835C65.8597 31.2039 65.5206 31.8702 65.0015 32.3805L54.1302 42.9188C53.335 43.6542 52.9749 44.7437 53.167 45.8093L55.8435 60.6248C56.1286 62.4137 54.9433 64.1006 53.167 64.4398C52.4348 64.5568 51.6846 64.4338 51.0245 64.0976L37.6416 57.125C36.6484 56.6238 35.4752 56.6238 34.4819 57.125L21.0991 64.0976C19.4547 64.971 17.4173 64.3767 16.5021 62.7559C16.163 62.1106 16.043 61.3752 16.154 60.6578L18.8306 45.8393C19.0226 44.7768 18.6596 43.6812 17.8674 42.9458L6.99605 32.4135C5.70277 31.1648 5.66376 29.1088 6.90903 27.8151C6.93604 27.7881 6.96604 27.7581 6.99605 27.7281C7.51216 27.2028 8.19031 26.8697 8.92246 26.7826L23.9257 24.5945C25.0059 24.4414 25.9451 23.7721 26.4402 22.7936L32.8796 9.34078C33.4527 8.1882 34.641 7.47083 35.9313 7.50085H36.3333C37.4526 7.63592 38.4278 8.32927 38.9289 9.34078Z" fill="white"/>
<path d="M35.976 56.7512C35.3949 56.7693 34.8288 56.9254 34.3196 57.2046L21.0022 64.1613C19.3727 64.939 17.4227 64.3355 16.5091 62.7772C16.1706 62.1407 16.0478 61.4111 16.1616 60.6965L18.8215 45.9094C19.0013 44.8345 18.6418 43.7416 17.86 42.985L6.98381 32.4553C5.69281 31.1913 5.66884 29.1166 6.93289 27.8225C6.95086 27.8045 6.96584 27.7895 6.98381 27.7745C7.49902 27.2641 8.16399 26.9278 8.87988 26.8227L23.8957 24.6129C24.983 24.4748 25.9266 23.7962 26.4058 22.8114L32.9327 9.18929C33.5528 8.09039 34.7419 7.43586 36 7.50491C35.976 8.39664 35.976 56.1448 35.976 56.7512Z" fill="white"/>
</svg>
