<svg width="30" height="30" viewBox="0 0 30 30" fill="none" xmlns="http://www.w3.org/2000/svg">
<path d="M20.1052 27.5001H9.89524C5.47149 27.5001 2.50024 24.6551 2.50024 20.4189V9.58137C2.50024 5.34512 5.47149 2.50012 9.89524 2.50012H20.1052C24.5277 2.50012 27.5002 5.34637 27.5002 9.58262V20.4189C27.5002 24.6551 24.5277 27.5001 20.1052 27.5001Z" fill="white" fill-opacity="0.15"/>
<path d="M13.9308 20.3493L9.22454 15.6643C8.87079 15.3118 8.87079 14.6881 9.22454 14.3343L13.9308 9.64928C14.2983 9.28428 14.8921 9.28553 15.2571 9.65303C15.6221 10.0206 15.6221 10.6131 15.2546 10.9793L12.1583 14.0631H20.1021C20.6208 14.0631 21.0396 14.4831 21.0396 15.0006C21.0396 15.5181 20.6208 15.9381 20.1021 15.9381H12.1583L15.2546 19.0206C15.4383 19.2043 15.5296 19.4443 15.5296 19.6856C15.5296 19.9243 15.4383 20.1643 15.2571 20.3468C14.8921 20.7131 14.2983 20.7143 13.9308 20.3493Z" fill="white"/>
</svg>
