<svg width="30" height="30" viewBox="0 0 30 30" fill="none" xmlns="http://www.w3.org/2000/svg">
<path d="M9.8948 27.5001H20.1048C24.5285 27.5001 27.4998 24.6551 27.4998 20.4189V9.58137C27.4998 5.34512 24.5285 2.50012 20.1048 2.50012H9.8948C5.4723 2.50012 2.4998 5.34637 2.4998 9.58262V20.4189C2.4998 24.6551 5.4723 27.5001 9.8948 27.5001Z" fill="white" fill-opacity="0.15"/>
<path d="M16.0692 20.3493L20.7755 15.6643C21.1292 15.3118 21.1292 14.6881 20.7755 14.3343L16.0692 9.64928C15.7017 9.28428 15.1079 9.28553 14.7429 9.65303C14.3779 10.0206 14.3779 10.6131 14.7454 10.9793L17.8417 14.0631H9.89791C9.37921 14.0631 8.96041 14.4831 8.96041 15.0006C8.96041 15.5181 9.37921 15.9381 9.89791 15.9381H17.8417L14.7454 19.0206C14.5617 19.2043 14.4704 19.4443 14.4704 19.6856C14.4704 19.9243 14.5617 20.1643 14.7429 20.3468C15.1079 20.7131 15.7017 20.7143 16.0692 20.3493Z" fill="white"/>
</svg>
