<svg width="27" height="29" viewBox="0 0 27 29" fill="none" xmlns="http://www.w3.org/2000/svg">
<g filter="url(#filter0_b_32598_48)">
<path opacity="0.7" d="M19.078 29H7.92203C3.25703 29 0 25.7712 0 21.1489V7.8511C0 3.2268 3.25703 0 7.92203 0H19.078C23.743 0 27 3.2268 27 7.8511V21.1489C27 25.7712 23.743 29 19.078 29" fill="#3FDCAF"/>
<path opacity="0.7" d="M16.1857 22H10.8143C8.5682 22 7 20.3299 7 17.9391V11.0609C7 8.66904 8.5682 7 10.8143 7H16.1857C18.4318 7 20 8.66904 20 11.0609V17.9391C20 20.3299 18.4318 22 16.1857 22" fill="#3FDCAF"/>
</g>
<defs>
<filter id="filter0_b_32598_48" x="-4" y="-4" width="35" height="37" filterUnits="userSpaceOnUse" color-interpolation-filters="sRGB">
<feFlood flood-opacity="0" result="BackgroundImageFix"/>
<feGaussianBlur in="BackgroundImage" stdDeviation="2"/>
<feComposite in2="SourceAlpha" operator="in" result="effect1_backgroundBlur_32598_48"/>
<feBlend mode="normal" in="SourceGraphic" in2="effect1_backgroundBlur_32598_48" result="shape"/>
</filter>
</defs>
</svg>
