<svg width="116" height="108" viewBox="0 0 116 108" fill="none" xmlns="http://www.w3.org/2000/svg">
<path d="M27.3492 41.2363C27.7166 41.6566 28.0126 42.1328 28.2257 42.6468L34.7045 61.6263V61.6263L37.9527 71.168C38.2271 72.1652 38.6498 73.1158 39.2072 73.9891C40.4826 75.6314 42.6726 76.3057 44.6903 75.6771L75.226 65.3162C76.5659 64.9333 78.0005 65.0885 79.2141 65.7474C80.2254 66.2965 81.0141 67.1579 81.4666 68.1906L81.6968 68.8295C85.1827 86.9837 76.0827 105.343 59.3376 113.94C42.5925 122.536 22.1971 119.319 9.22467 106.036C5.47548 102.171 2.55606 97.6014 0.63776 92.5948C0.00438478 91.1302 -0.507274 89.6166 -0.892231 88.0688C-6.03617 68.9823 3.13784 48.8317 21.1049 39.7522C23.3002 38.7817 25.8708 39.3927 27.3492 41.2363Z" fill="#3FDCAF"/>
<path opacity="0.4" d="M35.5895 21.2407C57.023 16.0781 79.0171 26.5922 87.9859 46.2885L87.9938 46.4494V46.4494L87.9591 46.6958L88.135 47.2997C88.3018 48.1174 88.1986 48.9748 87.8308 49.7436C87.4476 50.5444 86.8046 51.1922 86.0116 51.5892L85.5188 51.7965L50.2825 63.7283C49.1212 64.1655 47.8306 64.0991 46.7316 63.5456C45.8157 63.0843 45.1047 62.3209 44.7142 61.3977L32.7129 26.2359C32.6386 26.1261 32.6034 25.9948 32.6129 25.8625C32.3813 24.8667 32.5658 23.8174 33.1251 22.9489C33.6844 22.0804 34.572 21.4652 35.5895 21.2407Z" fill="#3FDCAF"/>
</svg>
