<svg width="114" height="106" viewBox="0 0 114 106" fill="none" xmlns="http://www.w3.org/2000/svg">
<path fill-rule="evenodd" clip-rule="evenodd" d="M50.4319 31.9446C53.1145 41.9561 63.4169 47.8941 73.4431 45.2076C74.5456 44.9064 75.6184 44.5053 76.6482 44.0095L86.2777 79.9476C90.329 95.0669 83.8073 106.402 68.6658 110.459L35.6875 119.295C20.5064 123.363 9.19118 116.808 5.13997 101.688L-3.68362 68.7583C-7.73483 53.639 -1.23441 42.2252 13.9467 38.1574L49.8582 28.535C49.9386 29.6874 50.1308 30.8293 50.4319 31.9446ZM53.2664 80.2664L61.6943 60.1913L61.6731 60.1121C62.3788 58.3347 61.5376 56.3205 59.7769 55.5721C58.9266 55.217 57.9682 55.2215 57.1207 55.5844C56.2733 55.9474 55.6091 56.6379 55.2799 57.4982L48.163 74.3798L33.1872 67.957C32.3337 67.5961 31.3705 67.5939 30.5149 67.9509C29.6593 68.3079 28.9834 68.9939 28.64 69.8541L19.9245 90.6002C19.6127 91.3091 19.5555 92.1037 19.7625 92.8495C20.0901 94.3812 21.4121 95.4981 22.979 95.567C24.5459 95.636 25.9626 94.6396 26.426 93.1427L33.7038 75.7513L48.6689 82.1346C49.5243 82.5132 50.4973 82.528 51.3643 82.1757C52.2314 81.8233 52.918 81.1341 53.2664 80.2664Z" fill="#FF7474"/>
<circle opacity="0.4" cx="68.7352" cy="25.3779" r="11.5016" transform="rotate(-15 68.7352 25.3779)" fill="#FF7474"/>
</svg>
