<svg width="135" height="36" viewBox="0 0 135 36" fill="none" xmlns="http://www.w3.org/2000/svg">
<path d="M72.4224 31.0001H78.4133V23.7162H80.4821L84.3611 31.0001H90.8692L86.3868 22.768C88.7357 21.6366 90.1365 19.4924 90.1365 16.4323C90.1365 11.7344 86.8501 8.93286 81.9475 8.93286H72.4224V31.0001ZM78.4133 19.0614V13.717H80.5252C82.6263 13.717 83.887 14.5359 83.887 16.4323C83.887 18.3179 82.6263 19.0614 80.5252 19.0614H78.4133Z" fill="black"/>
<path d="M105.749 8.93286V22.5525C105.749 24.6105 104.273 26.0867 102.215 26.0867C100.157 26.0867 98.6811 24.6105 98.6811 22.5525V8.93286H92.6902V23.0697C92.6902 28.1124 96.5046 31.2587 102.215 31.2587C107.883 31.2587 111.74 28.1124 111.74 23.0697V8.93286H105.749Z" fill="black"/>
<path d="M133.681 8.93286H127.69V20.4837H127.518L119.673 8.93286H114.588V31.0001H120.579V19.4062H120.708L128.681 31.0001H133.681V8.93286Z" fill="black"/>
<path opacity="0.8" d="M42.2824 25.2987C42.1554 24.9958 31.7059 4.44235 31.5344 4.15899C30.9851 2.85071 30.0194 1.70129 28.6923 0.929674C25.4456 -0.959367 21.2713 0.121762 19.3685 3.34445C18.0631 5.55471 18.1661 8.19858 19.407 10.2508C19.5341 10.5536 29.5357 30.2262 29.7068 30.5095C29.8342 30.8128 29.9836 31.1071 30.1551 31.3904C30.704 32.6991 31.6701 33.8482 32.9972 34.6202C36.2439 36.5088 40.4182 35.4273 42.321 32.205C43.626 29.9948 43.5234 27.3513 42.2824 25.2987Z" fill="#093CB5"/>
<path d="M29.7837 11.3893C30.9276 10.1794 31.629 8.55338 31.629 6.76348C31.629 3.02833 28.5785 0 24.8155 0C22.5007 0 20.4579 1.14591 19.226 2.89679C19.0015 3.13448 2.03408 23.8901 1.84534 24.1578C0.701881 25.3678 0 26.9942 0 28.7841C0 32.5192 3.05092 35.5471 6.81394 35.5471C9.12798 35.5471 11.1715 34.4008 12.403 32.6503C12.6279 32.413 29.595 11.657 29.7837 11.3893Z" fill="#093CB5"/>
<path d="M59.275 11.3893C60.4189 10.1794 61.1203 8.55338 61.1203 6.76348C61.1203 3.02833 58.0698 0 54.3068 0C51.9924 0 49.9492 1.14591 48.7173 2.89679C48.4928 3.13448 31.5258 23.8901 31.337 24.1578C30.1932 25.3678 29.4917 26.9942 29.4917 28.7841C29.4917 32.5192 32.5422 35.5471 36.3052 35.5471C38.6197 35.5471 40.6628 34.4008 41.8943 32.6503C42.1193 32.413 59.0863 11.657 59.275 11.3893Z" fill="#093CB5"/>
</svg>
