<svg width="72" height="72" viewBox="0 0 72 72" fill="none" xmlns="http://www.w3.org/2000/svg">
<path opacity="0.4" d="M34.3466 65.6925C27.6878 61.5795 21.4977 56.7298 15.8898 51.2321C11.9307 47.3067 8.90718 42.5138 7.05014 37.2194C3.73205 26.8943 7.59452 15.0942 18.3783 11.5911C24.0702 9.80357 30.2606 10.9009 35.0206 14.5411C39.7824 10.9049 45.9708 9.808 51.6629 11.5911C62.4468 15.0942 66.3351 26.8943 63.0171 37.2194C61.1751 42.5088 58.1696 47.3013 54.2293 51.2321C48.6162 56.7238 42.4268 61.573 35.7724 65.6925L35.0466 66.1666L34.3466 65.6925Z" fill="white"/>
<path d="M35.0318 66.1666L34.3467 65.6924C27.6796 61.5799 21.4809 56.7302 15.8638 51.232C11.886 47.3121 8.84449 42.5188 6.97239 37.2194C3.68022 26.8943 7.54269 15.0942 18.3265 11.5911C24.0184 9.80357 30.2905 10.9017 35.0318 14.5724V66.1666Z" fill="white"/>
<path d="M53.1722 31.1643C52.5863 31.1266 52.0407 30.8338 51.6632 30.3545C51.2857 29.8752 51.1094 29.2515 51.1757 28.6295C51.2391 26.581 50.0735 24.7164 48.2759 23.9909C47.1361 23.6798 46.4459 22.4453 46.731 21.228C47.0016 20.0302 48.1232 19.2854 49.2504 19.555C49.3928 19.5786 49.5298 19.6302 49.6545 19.7071C53.2586 21.0941 55.5921 24.8269 55.4064 28.9084C55.4005 29.527 55.1593 30.1165 54.7381 30.5418C54.3169 30.9672 53.7517 31.1918 53.1722 31.1643Z" fill="white"/>
</svg>
